<svg xmlns="http://www.w3.org/2000/svg" width="45.58" height="39.836" viewBox="0 0 45.58 39.836">
  <g id="customer" transform="translate(0 -32.711)">
    <ellipse id="Ellipse_525" data-name="Ellipse 525" cx="8.497" cy="7.89" rx="8.497" ry="7.89" transform="translate(14.293 32.711)" fill="#013861"/>
    <circle id="Ellipse_526" data-name="Ellipse 526" cx="4.855" cy="4.855" r="4.855" transform="translate(33.715 38.78)" fill="#013861"/>
    <circle id="Ellipse_527" data-name="Ellipse 527" cx="4.855" cy="4.855" r="4.855" transform="translate(2.154 38.78)" fill="#013861"/>
    <path id="Path_84204" data-name="Path 84204" d="M11.946,241.907c-1.927-1.579-3.673-1.37-5.9-1.37A6.034,6.034,0,0,0,0,246.545v9.722a2.616,2.616,0,0,0,2.618,2.608c6.234,0,5.483.113,5.483-.269C8.1,251.718,7.285,246.666,11.946,241.907Z" transform="translate(0 -189.243)" fill="#013861"/>
    <path id="Path_84205" data-name="Path 84205" d="M134.395,239.955c-3.892-.325-7.276,0-10.194,2.413-4.884,3.912-3.944,9.179-3.944,15.622a3.123,3.123,0,0,0,3.118,3.118c18.791,0,19.539.606,20.653-1.861.365-.835.265-.569.265-8.552C144.293,244.352,138.8,239.955,134.395,239.955Z" transform="translate(-109.485 -188.626)" fill="#013861"/>
    <path id="Path_84206" data-name="Path 84206" d="M383.711,240.539c-2.241,0-3.977-.207-5.9,1.37,4.626,4.723,3.845,9.431,3.845,16.7,0,.384-.623.269,5.389.269a2.709,2.709,0,0,0,2.712-2.7v-9.63A6.034,6.034,0,0,0,383.711,240.539Z" transform="translate(-344.176 -189.245)" fill="#013861"/>
  </g>
</svg>
