<svg xmlns="http://www.w3.org/2000/svg" width="64" height="62.652" viewBox="0 0 64 62.652">
  <path id="Union_31" data-name="Union 31" d="M20560.711,16785.285a7.938,7.938,0,0,1,4.848-10.02,7.718,7.718,0,0,1,9.832,4.947,7.935,7.935,0,0,1-4.852,10.018,7.62,7.62,0,0,1-2.488.422A7.761,7.761,0,0,1,20560.711,16785.285Zm6.355-5.494a3.137,3.137,0,0,0-1.914,3.961,3.045,3.045,0,0,0,3.883,1.953,3.141,3.141,0,0,0,1.918-3.959,3.075,3.075,0,0,0-2.9-2.121A2.977,2.977,0,0,0,20567.066,16779.791Zm32.176,5.494a7.939,7.939,0,0,1,4.855-10.02,7.714,7.714,0,0,1,9.828,4.947,7.935,7.935,0,0,1-4.852,10.018,7.6,7.6,0,0,1-2.488.422A7.776,7.776,0,0,1,20599.242,16785.285Zm6.359-5.494a3.142,3.142,0,0,0-1.918,3.961,3.052,3.052,0,0,0,3.883,1.953,3.134,3.134,0,0,0,1.918-3.959,3.066,3.066,0,0,0-2.9-2.121A2.994,2.994,0,0,0,20605.6,16779.791Zm-22.555,4.754h-6.121a9.355,9.355,0,0,0-.3-4.758,9.061,9.061,0,0,0-8.57-6.268,8.841,8.841,0,0,0-2.91.49,9.044,9.044,0,0,0-5.207,4.656,9.3,9.3,0,0,0-.762,5.879h-4.488c0-3.324,1.746-8.225,2.879-11.053h-.117a1.05,1.05,0,0,1-1.039-1.061v-2.918a1.051,1.051,0,0,1,1.039-1.061h21.2a1.052,1.052,0,0,1,1.043,1.061v2.918a1.055,1.055,0,0,1-.738,1.01,22.755,22.755,0,0,0,2.094,7.92h16.586a9.282,9.282,0,0,0,.074,3.184Zm7.6-6.211-3.7-9.549-9.867-1.564-.027-.006c-1.977-.234-3.941-1.2-4.594-4.611a29.813,29.813,0,0,1,1.477-14.725c1.309-3.883,4.531-5.113,6.754-4.549,2.063.523,3.051,3.289,2.582,5.795a14.079,14.079,0,0,1-1.074-1.492c-.215-.338-.367-.615-.457-.787-.043-.086-.078-.15-.094-.191l-.016-.025a2.6,2.6,0,0,0-2.367-1.555,2.538,2.538,0,0,0-1.078.238,2.629,2.629,0,0,0-1.359,1.482,2.7,2.7,0,0,0,.066,2.029l.016.023v.006a18.944,18.944,0,0,0,3.586,5.031,18.426,18.426,0,0,0,1.59,1.434,33.693,33.693,0,0,0-.469,5.91l8.172,1.3a3.278,3.278,0,0,1,2.527,2.059l4.379,11.316a3.335,3.335,0,0,1-1.832,4.3,3.218,3.218,0,0,1-1.191.234A3.256,3.256,0,0,1,20590.645,16778.334Zm15.941-4.816a8.8,8.8,0,0,0-2.906.492,8.975,8.975,0,0,0-3.766,2.5l-5.871-17.449-2.473.955h0a1.3,1.3,0,0,1-1.676-.771,1.324,1.324,0,0,1-.082-.5,17.057,17.057,0,0,0,2.52.186h.031c.309,0,.633-.008.961-.025a2.629,2.629,0,0,0,2.461-2.473,1.372,1.372,0,0,1,.285.477l1.926,5.727a12.337,12.337,0,0,1,6.9,7.146c.168.471.328.914.484,1.34a10.075,10.075,0,0,1,8.492,3.965c1.566,2.076,1.316,2.658.344,2.707A9.012,9.012,0,0,0,20606.586,16773.518Zm-54.2-6.479a1.4,1.4,0,0,1-1.391-1.416v-16.514a1.4,1.4,0,0,1,1.391-1.416h16.43a1.4,1.4,0,0,1,1.391,1.416v16.514a1.4,1.4,0,0,1-1.391,1.416Zm46.2-8.9a4.007,4.007,0,0,1,3.969-4.045c2.191,0,2.191,8.09,0,8.09A4.007,4.007,0,0,1,20598.59,16758.143Zm-6.254.256a15.921,15.921,0,0,1-11.469-4.891,18.124,18.124,0,0,1-3.5-4.9,2.136,2.136,0,0,1,1.031-2.809,2.067,2.067,0,0,1,2.758,1.051h0a.236.236,0,0,1,.016.037c.023.045.055.115.105.209.1.191.262.477.477.824a15.059,15.059,0,0,0,2.039,2.576,11.749,11.749,0,0,0,8.566,3.658c.234,0,.477,0,.727-.018a2.122,2.122,0,0,1,.207,4.238c-.312.014-.625.025-.934.025Zm-9.02-15.363a5.825,5.825,0,0,1-3.3-2.158,8.42,8.42,0,0,0,1.758.414,15.966,15.966,0,0,0,2.086.186,4.621,4.621,0,0,0,2.266-.514.229.229,0,0,0,.105-.109,2.8,2.8,0,0,0,.332-1.375c0-.887-.289-1.781-.359-3.064v-.055a1.068,1.068,0,0,1,.492-.867,7.253,7.253,0,0,1,3.172-.959,6.058,6.058,0,0,1,.477,4.047,5.8,5.8,0,0,1-7.027,4.455Zm-1.477-2.27a5.336,5.336,0,0,1-3.273-1.395,5.971,5.971,0,0,1-1.41-3.262,7.279,7.279,0,0,1-.105-1.207,7.814,7.814,0,0,1,.055-.9,6.816,6.816,0,0,1,6.7-6h0a6.72,6.72,0,0,1,5.98,3.66,7.05,7.05,0,0,1,.727,2.271,14.758,14.758,0,0,0-2.648.451,4.516,4.516,0,0,0-1.484.686,1.609,1.609,0,0,0-.7,1.291v.088c.074,1.346.363,2.273.359,3.033a2.416,2.416,0,0,1-.23,1.055,4.245,4.245,0,0,1-1.953.41h-.012A15.492,15.492,0,0,1,20581.84,16740.766Z" transform="translate(-20551 -16728)" fill="#707171"/>
</svg>
