<svg xmlns="http://www.w3.org/2000/svg" width="57" height="57" viewBox="0 0 57 57">
  <g id="Group_161219" data-name="Group 161219" transform="translate(20283.348 7677.348)">
    <circle id="Ellipse_529" data-name="Ellipse 529" cx="28.5" cy="28.5" r="28.5" transform="translate(-20283.348 -7677.348)" fill="rgba(1,56,97,0.07)"/>
    <g id="enter" transform="translate(-20271.146 -7664.455)">
      <path id="Path_624" data-name="Path 624" d="M51.37-500.641a16.046,16.046,0,0,0-4.983,1.2,15.347,15.347,0,0,0-7.739,7.292A5.85,5.85,0,0,0,38-490.5a1.264,1.264,0,0,0,.44.837,1.089,1.089,0,0,0,1.34-.113,5,5,0,0,0,.478-.881,13.278,13.278,0,0,1,9.916-7.72,19.7,19.7,0,0,1,3.718-.1,13.177,13.177,0,0,1,2.731.61,13.35,13.35,0,0,1,8.683,9.356,13.43,13.43,0,0,1,.05,6.3,13.738,13.738,0,0,1-2.611,5.317,17.6,17.6,0,0,1-2.032,2.02,13.6,13.6,0,0,1-6.732,2.825,20.2,20.2,0,0,1-3.146,0,13.76,13.76,0,0,1-5.795-2.133,13.383,13.383,0,0,1-4.782-5.682c-.428-.956-.654-1.183-1.189-1.183a1.024,1.024,0,0,0-1.013,1.309,15.525,15.525,0,0,0,1.17,2.435,16.661,16.661,0,0,0,3.618,4.134,16.324,16.324,0,0,0,3.681,2.152,15.437,15.437,0,0,0,16.787-3.372,15.493,15.493,0,0,0,4.367-8.733,20.261,20.261,0,0,0,0-4.278,15.462,15.462,0,0,0-5.656-9.884,15.334,15.334,0,0,0-7.506-3.24A24.648,24.648,0,0,0,51.37-500.641Z" transform="translate(-35.618 500.657)" fill="#013861"/>
      <path id="Path_625" data-name="Path 625" d="M15.431-361.767a1.329,1.329,0,0,0-.4.327,1.2,1.2,0,0,0-.082,1.057c.057.12.975,1.082,2.032,2.146l1.932,1.938h-8.9c-6.606,0-8.96.019-9.142.076A1.091,1.091,0,0,0,.155-355a1.206,1.206,0,0,0,.717.768c.182.057,2.536.076,9.142.076h8.9l-1.932,1.932c-1.057,1.07-1.969,2.026-2.026,2.139a1.053,1.053,0,0,0,1.233,1.466c.239-.063.6-.4,3.209-3.007,1.617-1.611,2.989-3.026,3.039-3.133a1.254,1.254,0,0,0,0-.931c-.05-.107-1.422-1.523-3.039-3.133-2.5-2.492-2.976-2.945-3.19-3A.856.856,0,0,0,15.431-361.767Z" transform="translate(-0.138 370.623)" fill="#013861"/>
    </g>
  </g>
</svg>
