<svg id="error_FILL0_wght400_GRAD0_opsz48" xmlns="http://www.w3.org/2000/svg" width="40" height="40" viewBox="0 0 40 40">
  <path id="error_FILL0_wght400_GRAD0_opsz48-2" data-name="error_FILL0_wght400_GRAD0_opsz48" d="M22.65,21.65h3V34.3h-3ZM24,14a1.623,1.623,0,1,1-1.175.475A1.6,1.6,0,0,1,24,14ZM24,4a20.285,20.285,0,0,0-7.9,1.525A19.357,19.357,0,0,0,5.525,16.1,20.285,20.285,0,0,0,4,24a20.156,20.156,0,0,0,1.525,7.85A19.52,19.52,0,0,0,9.75,38.2,19.939,19.939,0,0,0,24,44,19.84,19.84,0,0,0,44,24,19.939,19.939,0,0,0,38.2,9.75a19.52,19.52,0,0,0-6.35-4.225A20.156,20.156,0,0,0,24,4Zm0,20ZM24,7a16.366,16.366,0,0,1,12,5,16.366,16.366,0,0,1,5,12,16.366,16.366,0,0,1-5,12,16.366,16.366,0,0,1-12,5,16.366,16.366,0,0,1-12-5A16.366,16.366,0,0,1,7,24a16.366,16.366,0,0,1,5-12A16.366,16.366,0,0,1,24,7Z" transform="translate(-4 -4)" fill="#013861"/>
</svg>
