<svg xmlns="http://www.w3.org/2000/svg" width="24" height="25.02" viewBox="0 0 24 25.02">
  <g id="logout_3_" data-name="logout (3)" transform="translate(-17.219)">
    <g id="Group_161227" data-name="Group 161227" transform="translate(17.219)">
      <path id="Path_84219" data-name="Path 84219" d="M28.391,23.587H21.865a3.217,3.217,0,0,1-3.212-3.212V4.646a3.217,3.217,0,0,1,3.212-3.212H28.5A.717.717,0,1,0,28.5,0H21.865a4.651,4.651,0,0,0-4.646,4.646V20.374a4.651,4.651,0,0,0,4.646,4.646h6.526a.717.717,0,0,0,0-1.434Z" transform="translate(-17.219)" fill="#f89321"/>
      <path id="Path_84220" data-name="Path 84220" d="M138.015,141.092l-4.556-4.556a.717.717,0,1,0-1.014,1.014l3.335,3.335H121.236a.717.717,0,0,0,0,1.434H135.78l-3.335,3.335a.72.72,0,0,0,.5,1.227.7.7,0,0,0,.5-.212l4.556-4.556A.716.716,0,0,0,138.015,141.092Z" transform="translate(-114.226 -129.086)" fill="#f89321"/>
    </g>
  </g>
</svg>
