<svg xmlns="http://www.w3.org/2000/svg" xmlns:xlink="http://www.w3.org/1999/xlink" width="153.613" height="75.214" viewBox="0 0 153.613 75.214">
  <defs>
    <linearGradient id="linear-gradient" x1="-0.208" y1="-2.041" x2="0.5" y2="0.902" gradientUnits="objectBoundingBox">
      <stop offset="0" stop-color="#0b0e18"/>
      <stop offset="1" stop-color="#fab417"/>
    </linearGradient>
  </defs>
  <g id="Artboard_1" data-name="Artboard 1" transform="translate(-132.383 -309.633)">
    <path id="Path_2639" data-name="Path 2639" d="M562.563,374.135c-.025-.208-.069-.4-.11-.594q-1.072-4.894-2.147-9.786-1.185-5.4-2.367-10.823-1.49-6.812-2.978-13.625l-2.968-13.573q-.542-2.481-1.087-4.967a1.684,1.684,0,0,0-.277-.734,48.539,48.539,0,0,0-5.671,1.615,4.548,4.548,0,0,0-.434.189,1.913,1.913,0,0,0,.345.127c.332.046.667.083,1,.116.6.06,1.2.121,1.8.177a.767.767,0,0,1,.713.611c.031.112.05.229.073.345q.31,1.663.623,3.325l2.265,11.973q1.353,7.149,2.7,14.3.979,5.169,1.96,10.339.869,4.572,1.748,9.144c.025.131.044.264.058.4a.667.667,0,0,1-.376.707c-.073.04-.15.077-.224.112l-3.61,1.669a2.929,2.929,0,0,1-.33.11,1.148,1.148,0,0,1-.166-.493c-.079-.445-.158-.892-.241-1.336q-1.145-6.191-2.286-12.378-1.027-5.547-2.043-11.094-.981-5.32-1.97-10.645c-.148-.792-.289-1.584-.434-2.378a.734.734,0,0,0-.208-.48,2.263,2.263,0,0,0,.027.715q.337,2.723.682,5.443.268,2.147.54,4.3t.555,4.343c.183,1.432.36,2.864.547,4.3.181,1.4.372,2.8.555,4.192q.333,2.523.653,5.046l.761,5.842c.222,1.715.439,3.429.659,5.144.015.116.035.233.039.349a1.006,1.006,0,0,1-.513.971c-.131.077-.266.143-.4.208-1.093.553-2.19,1.1-3.284,1.663-.734.372-1.455.754-2.2,1.128a2.7,2.7,0,0,1-.86.314.586.586,0,0,1-.17-.445q-.459-3.011-.915-6.027-.445-2.937-.894-5.873l-1.039-6.921q-.482-3.215-.964-6.424-.536-3.585-1.064-7.172l-.952-6.374-1.072-7.17q-.52-3.46-1.054-6.919-.287-1.893-.576-3.782a2.485,2.485,0,0,0-.083-.393.544.544,0,0,0-.648-.416,3.694,3.694,0,0,0-.4.073l-5.659,1.247c-.459.1-.916.208-1.378.3a.491.491,0,0,1-.607-.324,2.476,2.476,0,0,1-.121-.382c-.071-.276-.133-.555-.208-.831a22.135,22.135,0,0,0-2.579-6.264,16,16,0,0,0-4.761-4.988,9.792,9.792,0,0,0-6.511-1.663,11.062,11.062,0,0,0-3.9,1.135,12.4,12.4,0,0,0-4.032,3.286,21.155,21.155,0,0,0-3.845,7.253,25.835,25.835,0,0,0-1.137,7.482v.208c-.023.892-.326,1.158-1.083,1.305-1.006.193-2,.451-2.995.688a2.781,2.781,0,0,0-.345.131.656.656,0,0,0,.36.058q.624-.062,1.247-.137c.624-.075,1.232-.16,1.85-.231a1.555,1.555,0,0,1,.881.056,1.072,1.072,0,0,1,.1,1.039,1.663,1.663,0,0,0-1.523,1.663,1.792,1.792,0,0,0,0,.183,1.56,1.56,0,0,0,.314.86,1.277,1.277,0,0,0,.5.389,1.663,1.663,0,1,0,1.029-3.1,1.332,1.332,0,0,1-.091-.551.688.688,0,0,1,.553-.74,2.848,2.848,0,0,1,.493-.106l3.4-.416q2.2-.27,4.4-.549l4.5-.565c1.247-.158,2.494-.31,3.741-.466l3.348-.416,4.6-.584c.283-.035.565-.083.848-.112.522-.056.669.054.767.557.013.064.021.133.031.2l.162,1.039c.037.249.083.5.108.748a1.024,1.024,0,0,1-.208.767,1.663,1.663,0,1,0,.935.042.949.949,0,0,1-.359-.85c.021-.553.012-1.108.019-1.663a3.242,3.242,0,0,1,.017-.4.709.709,0,0,1,.6-.709c.083-.017.164-.039.247-.05.515-.069,1.039-.135,1.548-.208.917-.118,1.835-.22,2.747-.353.777-.114,1.054.077,1.139.86.044.416.075.831.116,1.247q.174,1.7.353,3.4t.353,3.354c.079.767.156,1.536.237,2.3q.177,1.7.357,3.4.187,1.781.368,3.556c.112,1.068.227,2.136.335,3.2.116,1.135.226,2.272.343,3.406q.187,1.827.378,3.656.118,1.151.235,2.3l.38,3.577.245,2.344.355,3.406c.114,1.118.222,2.236.343,3.354.146,1.351.3,2.7.453,4.053.162,1.455.328,2.91.486,4.352.06.551.1,1.1.145,1.663a.7.7,0,0,1-.071.5c-.208.04-.341-.1-.5-.181-2.589-1.39-5.2-2.77-7.856-4a83.548,83.548,0,0,0-13.716-4.971,64.453,64.453,0,0,0-13.207-2.109,51.84,51.84,0,0,0-6.093.042c-1.342.091-2.677.22-4.007.416a42.4,42.4,0,0,0-7.461,1.692,33.777,33.777,0,0,0-3.57,1.38.93.93,0,0,0-.478.32,1.393,1.393,0,0,0,.623-.073c1.413-.3,2.822-.613,4.235-.917a49.675,49.675,0,0,1,6.779-.948c1.189-.087,2.382-.106,3.572-.133,1.513-.035,3.024.033,4.533.133,1.81.116,3.608.357,5.4.624q3.242.48,6.426,1.247a81.243,81.243,0,0,1,11.736,3.791,91.6,91.6,0,0,1,9.491,4.549c1.794.991,3.562,2.026,5.283,3.138a1.756,1.756,0,0,0,1.9.114c.492-.251,1-.47,1.5-.7l18.8-8.793a3.91,3.91,0,0,0,.36-.185A.767.767,0,0,0,562.563,374.135Zm-38.009-49.552c-.374.094-.752.173-1.131.254l-20.72,4.485-2.509.547a1.23,1.23,0,0,1-.58.044,2.3,2.3,0,0,1,.017-.831c.254-1.266.482-2.538.769-3.8a23.505,23.505,0,0,1,2.91-7.255,17.038,17.038,0,0,1,3.186-3.814,10.508,10.508,0,0,1,3.467-2.1,8.489,8.489,0,0,1,6.339.193,11.988,11.988,0,0,1,3.558,2.392,16.447,16.447,0,0,1,3.022,3.949,27.926,27.926,0,0,1,2.174,5.09C525.23,324.295,525.144,324.436,524.554,324.583Z" transform="translate(-276.578 0)" fill="url(#linear-gradient)"/>
    <path id="Path_2640" data-name="Path 2640" d="M163.807,402.932a3.128,3.128,0,0,0,.349-.058c.017-.172.044-.32.044-.47v-6.293a.771.771,0,0,0-.1-.5,1.615,1.615,0,0,0-.723-.064H132.787a3.091,3.091,0,0,0-.362.073c-.017.235-.042.449-.042.663v5.942a2.822,2.822,0,0,0,.01.351,3.415,3.415,0,0,0,.083.345c.208,0,.391.017.574.017h11.69a1.262,1.262,0,0,1,.58.048.669.669,0,0,1,.1.495v29.154c0,.208.015.43.025.682a2.35,2.35,0,0,0,.312.05h6.752a1.107,1.107,0,0,0,.208-.048,2.445,2.445,0,0,0,.069-.339c.01-.208,0-.4,0-.6V405.933c0-.854.015-1.71.029-2.567a2.456,2.456,0,0,1,.054-.366,1.351,1.351,0,0,1,.623-.066h9.826C163.5,402.936,163.656,402.942,163.807,402.932Z" transform="translate(0 -68.043)" fill="#013861"/>
    <path id="Path_2641" data-name="Path 2641" d="M530.754,481.608a9.805,9.805,0,0,0,2.614,1.039,15.544,15.544,0,0,0,2.338.343,16.394,16.394,0,0,0,2.213.029c.333-.015.665-.067,1.025-.1.089-.208.185-.395.262-.6.563-1.438,1.12-2.878,1.683-4.314.035-.092.04-.227.189-.262.091.875.175,1.725.272,2.575s.137,1.733.314,2.621c.189.012.351.031.515.033h5.8a.816.816,0,0,0,.544-.087,1.824,1.824,0,0,0,.064-.736v-14.3c0-.6-.029-1.209-.089-1.81a7.169,7.169,0,0,0-1.247-3.462,9.024,9.024,0,0,0-3.691-3.036,14.868,14.868,0,0,0-4.552-1.209c-.482-.056-.97-.064-1.455-.127a11.8,11.8,0,0,0-3.061.069,28.12,28.12,0,0,0-3.874.856,3.887,3.887,0,0,0-.376.148c-.046.193-.091.37-.131.551l-.667,3.2c-.137.657-.279,1.314-.416,1.97a.762.762,0,0,0,0,.559c.135-.035.264-.06.389-.1.607-.2,1.209-.4,1.818-.594a14.812,14.812,0,0,1,4.857-.727c.623.017,1.247.042,1.87.089a4.246,4.246,0,0,1,1.69.457,2.3,2.3,0,0,1,1.205,1.417,3.618,3.618,0,0,1,.114,1.532,1.544,1.544,0,0,1-.727.048c-.871-.046-1.739-.127-2.612-.156a20.03,20.03,0,0,0-3.716.164,9.192,9.192,0,0,0-2.968.914,6.846,6.846,0,0,0-3.6,4.439,8.3,8.3,0,0,0-.035,3.793A6.886,6.886,0,0,0,530.754,481.608Zm3.824-7.968a2,2,0,0,1,1.6-1.074,10.45,10.45,0,0,1,2.307-.077c.7.029,1.4.114,2.1.179a2.792,2.792,0,0,1,.359.079,25.1,25.1,0,0,1,.094,3.949c0,.162-.027.326-.044.513a2.938,2.938,0,0,1-.416.06h-3.872a3.7,3.7,0,0,1-1.18-.208,1.52,1.52,0,0,1-.927-.8A2.91,2.91,0,0,1,534.578,473.641Z" transform="translate(-312.69 -117.636)" fill="#013861"/>
    <path id="Path_2642" data-name="Path 2642" d="M273.043,465.14a14.178,14.178,0,0,0-.831-4.686,11.323,11.323,0,0,0-4.78-5.987,12.822,12.822,0,0,0-6-1.843,15.731,15.731,0,0,0-2.866.06,13.958,13.958,0,0,0-3.415.831,11.222,11.222,0,0,0-4.2,2.791,12.054,12.054,0,0,0-2.762,4.915,15.987,15.987,0,0,0-.6,4.78,15.278,15.278,0,0,0,.717,4.558,10.954,10.954,0,0,0,6.918,7.153,14.672,14.672,0,0,0,4.537.831,16.654,16.654,0,0,0,2.012-.06,14.259,14.259,0,0,0,3.533-.729,10.84,10.84,0,0,0,5.871-4.668,13.025,13.025,0,0,0,1.754-5.312A19.618,19.618,0,0,0,273.043,465.14Zm-6.906,3.789a6.806,6.806,0,0,1-1.4,2.814,5.235,5.235,0,0,1-3.161,1.823,7.186,7.186,0,0,1-2.947-.058,5.423,5.423,0,0,1-3.651-2.926,9.516,9.516,0,0,1-1.018-4.017c-.017-.318,0-.636,0-.954a11.845,11.845,0,0,1,.532-3.82,7.363,7.363,0,0,1,1.064-2.1,5.4,5.4,0,0,1,3.949-2.228,7.383,7.383,0,0,1,2.151.1,5.3,5.3,0,0,1,3.388,2.263,7.29,7.29,0,0,1,1.126,2.619,13.925,13.925,0,0,1-.029,6.49Z" transform="translate(-91.259 -113.242)" fill="#013861"/>
    <path id="Path_2643" data-name="Path 2643" d="M459.126,474.849a15.471,15.471,0,0,0,.378-3.645V450.86a.753.753,0,0,0-.125-.54c-.135.019-.268.025-.393.054q-3.458.815-6.91,1.638c-.143.033-.283.089-.449.141,0,.258-.023.491-.023.721v18.289a14.583,14.583,0,0,1-.093,1.808,7.167,7.167,0,0,1-.906,2.754,4.762,4.762,0,0,1-3.741,2.421,11.8,11.8,0,0,1-1.4.079c-.129,0-.272-.033-.4.139.438,1.775.933,3.566,1.409,5.362.037.143.1.281.154.428a3.194,3.194,0,0,0,.362.052,11.331,11.331,0,0,0,2.7-.208,12.276,12.276,0,0,0,9.439-9.148Z" transform="translate(-247.695 -111.449)" fill="#013861"/>
    <path id="Path_2644" data-name="Path 2644" d="M376.734,450.371l-6.958,1.646a2.8,2.8,0,0,0-.349.141c0,.276-.023.54-.023.806v17.621c0,.6-.012,1.21-.044,1.812a7.167,7.167,0,0,1-.881,3.171,4.8,4.8,0,0,1-3.814,2.554,12.194,12.194,0,0,1-1.4.075c-.127,0-.27-.035-.391.12.029.141.058.306.1.468.148.567.3,1.135.447,1.7q.428,1.606.858,3.209c.044.156.052.337.241.455.071,0,.17.027.268.031a12.125,12.125,0,0,0,2.951-.279,12.3,12.3,0,0,0,9.539-11.846c.01-3.088,0-6.177,0-9.265V451.015a1.762,1.762,0,0,0-.079-.715C377.029,450.323,376.877,450.337,376.734,450.371Z" transform="translate(-182.586 -111.433)" fill="#013861"/>
    <path id="Path_2645" data-name="Path 2645" d="M650.77,457.88c-.438.04-3.716.977-7.3,2.078-.156.048-.307.114-.517.193v22.206a2.551,2.551,0,0,0,.056.318,1.128,1.128,0,0,0,.624.079h6.551a3.339,3.339,0,0,0,.351,0,1.964,1.964,0,0,0,.3-.081c0-.235.017-.449.019-.665v-14.35a1.108,1.108,0,0,1,.077-.623c.129-.037.27-.085.416-.121q2.884-.7,5.769-1.4c.193-.046.384-.1.6-.162.017-.243.042-.457.044-.673v-4.281c0-.208,0-.4-.013-.6a2.149,2.149,0,0,0-.085-.347h-.322c-1.247.127-2.494.258-3.753.38a.922.922,0,0,0-.584.249,10.011,10.011,0,0,0-1.908,2.456c-.052.1-.112.193-.224.387-.01-.272-.023-.432-.023-.592V458.4A.644.644,0,0,0,650.77,457.88Z" transform="translate(-404.459 -117.437)" fill="#013861"/>
    <path id="Path_2646" data-name="Path 2646" d="M340.277,402.685a7.013,7.013,0,0,0,.054.752,2.165,2.165,0,0,0,4.279.066,5.526,5.526,0,0,0,.1-1.049c.019-.871.017-1.744.019-2.616a3.909,3.909,0,0,0-.031-.4.717.717,0,0,0-.624-.139,1.315,1.315,0,0,0-.337.114c0,.208-.017.389-.015.569.01.956.035,1.912.025,2.868a2.269,2.269,0,0,1-.177.831,1.074,1.074,0,0,1-1.881.208,1.535,1.535,0,0,1-.3-.736,5.268,5.268,0,0,1-.044-.65c0-.873.017-1.746.025-2.617,0-.181.042-.374-.141-.54a1.124,1.124,0,0,0-.921.054,1.185,1.185,0,0,0-.071.611Q340.254,401.353,340.277,402.685Z" transform="translate(-164.642 -71.012)" fill="#013861"/>
    <path id="Path_2647" data-name="Path 2647" d="M299.44,404.954c0-.173.021-.355.021-.536v-3.772a.948.948,0,0,1,.077-.569,1.707,1.707,0,0,1,.869-.01.765.765,0,0,1,.5.387,1.328,1.328,0,0,1,.025,1.21.573.573,0,0,1-.416.326c-.081.019-.166.019-.249.033-.495.089-.678.376-.576.9a.819.819,0,0,0,.526.106,2.064,2.064,0,0,0,1.852-1.775,3.116,3.116,0,0,0,.021-.5,1.621,1.621,0,0,0-1.232-1.636,3.491,3.491,0,0,0-2.265.152,1.349,1.349,0,0,0-.2.127c0,.187-.025.385-.023.582,0,.368.037.738.035,1.106,0,1.122-.027,2.247-.039,3.369a.715.715,0,0,0,.143.588A1.293,1.293,0,0,0,299.44,404.954Z" transform="translate(-131.487 -70.792)" fill="#013861"/>
    <path id="Path_2648" data-name="Path 2648" d="M368.013,404.128a.665.665,0,0,1-.293-.048,3.474,3.474,0,0,1-.484-.258.947.947,0,0,0-.6-.227c-.351.235-.347.6-.278,1.029a3.83,3.83,0,0,0,.6.337,2.787,2.787,0,0,0,1.779.031,1.247,1.247,0,0,0,.846-.734,1.892,1.892,0,0,0-.544-2.272,4.56,4.56,0,0,0-.466-.3,5.371,5.371,0,0,1-.515-.31,2.079,2.079,0,0,1-.459-.457.53.53,0,0,1,.432-.867,1.148,1.148,0,0,1,.682.127,1.921,1.921,0,0,0,.268.137.366.366,0,0,0,.528-.224,5.465,5.465,0,0,0,.129-.623,2.191,2.191,0,0,0-2.286-.208,1.54,1.54,0,0,0-.842,1.762,1.8,1.8,0,0,0,.873,1.232c.243.15.5.281.729.445a2.041,2.041,0,0,1,.434.416.623.623,0,0,1,.064.711A.642.642,0,0,1,368.013,404.128Z" transform="translate(-185.323 -70.818)" fill="#013861"/>
    <path id="Path_2649" data-name="Path 2649" d="M320.451,404.368a.992.992,0,0,0,1.012.927h1.617a1.945,1.945,0,0,0,.349-.027.457.457,0,0,0,.355-.254,1.109,1.109,0,0,0,.071-.848l-.609.029-1.106.048a.592.592,0,0,1-.661-.646v-.208q.019-1.758.033-3.521a.655.655,0,0,0-.093-.478,1.174,1.174,0,0,0-.966.031c-.012.131-.033.245-.033.362q0,2.034.01,4.073A3.083,3.083,0,0,0,320.451,404.368Z" transform="translate(-148.959 -71.033)" fill="#013861"/>
    <path id="Path_2650" data-name="Path 2650" d="M394.54,419.76l3.437-.883c1.941-.468,4.09-1.01,4.344-1.116,0-.189.023-.372.023-.553v-2.523l.023-2.685H394.54Z" transform="translate(-207.675 -81.092)" fill="url(#linear-gradient)"/>
    <path id="Path_2651" data-name="Path 2651" d="M479.788,418.925l4.533-1.164.05-5.611V412H476.54v7.76l3.2-.831Z" transform="translate(-272.633 -81.092)" fill="url(#linear-gradient)"/>
  </g>
</svg>
