<svg xmlns="http://www.w3.org/2000/svg" width="38.656" height="44.387" viewBox="0 0 38.656 44.387">
  <g id="Group_160533" data-name="Group 160533" transform="translate(11.765 -7.806)">
    <g id="sent" transform="translate(-44.822 7.806)">
      <g id="Group_161086" data-name="Group 161086" transform="translate(33.057)">
        <g id="Group_161085" data-name="Group 161085" transform="translate(0)">
          <path id="Path_84207" data-name="Path 84207" d="M282.959,1.247A2.5,2.5,0,0,0,280.8,0h-9.281V10.979h17.071Z" transform="translate(-250.843)" fill="#013861"/>
          <path id="Path_84208" data-name="Path 84208" d="M60.941,0H51.572a2.5,2.5,0,0,0-2.163,1.25L43.8,10.979h17.14V0Z" transform="translate(-42.87)" fill="#013861"/>
          <path id="Path_84209" data-name="Path 84209" d="M33.057,156.648V184.4a3.063,3.063,0,0,0,3.06,3.059H68.653a3.063,3.063,0,0,0,3.06-3.059V156.648ZM58.29,168.317l-6.728,6.728a1.3,1.3,0,0,1-1.839,0l-3.154-3.153a1.3,1.3,0,1,1,1.84-1.839l2.233,2.234,5.809-5.809a1.3,1.3,0,1,1,1.839,1.839Z" transform="translate(-33.057 -143.068)" fill="#013861"/>
        </g>
      </g>
    </g>
  </g>
</svg>
