<svg xmlns="http://www.w3.org/2000/svg" width="15" height="14.063" viewBox="0 0 15 14.063">
  <path id="Sign_In_1_" d="M11.113,11.363,6.425,16.05a.469.469,0,0,1-.663-.663L9.65,11.5H.469a.469.469,0,1,1,0-.937H9.65L5.762,6.675a.469.469,0,0,1,.663-.663L11.113,10.7A.468.468,0,0,1,11.113,11.363ZM15,15.25V6.813A2.816,2.816,0,0,0,12.188,4H8.906a.469.469,0,0,0,0,.938h3.281a1.877,1.877,0,0,1,1.875,1.875V15.25a1.877,1.877,0,0,1-1.875,1.875H8.906a.469.469,0,1,0,0,.937h3.281A2.816,2.816,0,0,0,15,15.25Z" transform="translate(0 -4)" fill="#f89321"/>
</svg>
