<svg xmlns="http://www.w3.org/2000/svg" width="36" height="48" viewBox="0 0 36 48">
  <path id="Union_32" data-name="Union 32" d="M3,48a2.967,2.967,0,0,1-3-3V9A3.005,3.005,0,0,1,3,6H6v4.5A4.506,4.506,0,0,0,10.5,15h15A4.506,4.506,0,0,0,30,10.5V6h3a2.967,2.967,0,0,1,3,3V45a2.967,2.967,0,0,1-3,3ZM6.438,33.441a1.5,1.5,0,0,0,0,2.121l3,3a1.506,1.506,0,0,0,2.124,0l6-6a1.5,1.5,0,0,0-2.124-2.121L10.5,35.379,8.559,33.441a1.5,1.5,0,0,0-2.121,0ZM21,34.5A1.5,1.5,0,0,0,22.5,36h6a1.5,1.5,0,1,0,0-3h-6A1.5,1.5,0,0,0,21,34.5ZM6.438,21.441a1.5,1.5,0,0,0,0,2.121l3,3a1.506,1.506,0,0,0,2.124,0l6-6a1.5,1.5,0,0,0-2.124-2.121L10.5,23.379,8.559,21.441a1.5,1.5,0,0,0-2.121,0ZM21,22.5A1.5,1.5,0,0,0,22.5,24h6a1.5,1.5,0,1,0,0-3h-6A1.5,1.5,0,0,0,21,22.5ZM10.5,12A1.5,1.5,0,0,1,9,10.5v-6A1.5,1.5,0,0,1,10.5,3h3.255a4.5,4.5,0,0,1,8.487,0H25.5A1.5,1.5,0,0,1,27,4.5v6A1.5,1.5,0,0,1,25.5,12Z" fill="#013861"/>
</svg>
