<svg xmlns="http://www.w3.org/2000/svg" width="48" height="48" viewBox="0 0 48 48">
  <path id="Union_33" data-name="Union 33" d="M17766.57,18459.289a13.714,13.714,0,1,1,13.717,13.711A13.72,13.72,0,0,1,17766.57,18459.289Zm7.359-1.223a1.715,1.715,0,0,0,0,2.438l3.422,3.43a1.762,1.762,0,0,0,1.221.508,1.732,1.732,0,0,0,1.217-.508l6.859-6.855a1.724,1.724,0,0,0-2.437-2.437l-5.639,5.656-2.205-2.23a1.739,1.739,0,0,0-1.223-.5A1.714,1.714,0,0,0,17773.93,18458.066Zm-21.07,14.934a6.864,6.864,0,0,1-6.861-6.859v-34.281a6.864,6.864,0,0,1,6.861-6.859h8.574v12a1.722,1.722,0,0,0,2.93,1.223l2.207-2.23,2.217,2.23a1.712,1.712,0,0,0,2.434,0l2.209-2.23,2.213,2.23a1.67,1.67,0,0,0,1.217.492,1.372,1.372,0,0,0,.648-.133,1.7,1.7,0,0,0,1.064-1.582v-12h8.576a6.854,6.854,0,0,1,6.85,6.859V18449a17.142,17.142,0,1,0-24,24Zm14.932-40.648a1.755,1.755,0,0,0-2.437,0l-.5.516V18425h10.289v7.867l-.492-.516a1.763,1.763,0,0,0-1.223-.508,1.741,1.741,0,0,0-1.215.508l-2.217,2.23Z" transform="translate(-17745.998 -18425)" fill="#013861"/>
</svg>
