<svg xmlns="http://www.w3.org/2000/svg" width="43.2" height="48" viewBox="0 0 43.2 48">
  <path id="assignment_turned_in_FILL1_wght400_GRAD0_opsz48" d="M24.18,37.46,40.8,20.84l-2.58-2.58L24.18,32.3l-7.26-7.26L14.4,27.56ZM9.6,50A3.585,3.585,0,0,1,6,46.4v-36A3.585,3.585,0,0,1,9.6,6.8H21.9a5.324,5.324,0,0,1,1.92-3.45,5.967,5.967,0,0,1,7.56,0A5.324,5.324,0,0,1,33.3,6.8H45.6a3.585,3.585,0,0,1,3.6,3.6v36A3.585,3.585,0,0,1,45.6,50Zm18-40.62a2.015,2.015,0,0,0,1.47-.63,2.03,2.03,0,0,0,0-2.94,2.03,2.03,0,0,0-2.94,0,2.03,2.03,0,0,0,0,2.94A2.015,2.015,0,0,0,27.6,9.38Z" transform="translate(-6 -2)" fill="#013861"/>
</svg>
