<svg xmlns="http://www.w3.org/2000/svg" xmlns:xlink="http://www.w3.org/1999/xlink" width="90" height="90" viewBox="0 0 90 90">
  <defs>
    <filter id="Ellipse_531" x="0" y="0" width="90" height="90" filterUnits="userSpaceOnUse">
      <feOffset dy="3" input="SourceAlpha"/>
      <feGaussianBlur stdDeviation="3" result="blur"/>
      <feFlood flood-opacity="0.161"/>
      <feComposite operator="in" in2="blur"/>
      <feComposite in="SourceGraphic"/>
    </filter>
  </defs>
  <g id="Group_161242" data-name="Group 161242" transform="translate(15654.516 16732.516)">
    <g id="Group_161238" data-name="Group 161238" transform="translate(-15646 -16727)">
      <g transform="matrix(1, 0, 0, 1, -8.52, -5.52)" filter="url(#Ellipse_531)">
        <circle id="Ellipse_531-2" data-name="Ellipse 531" cx="36" cy="36" r="36" transform="translate(9 6)" fill="#fff"/>
      </g>
      <g id="delivery-bike_1_" data-name="delivery-bike (1)" transform="translate(16.505 19.111)">
        <path id="delivery-bike_1_2" data-name="delivery-bike (1)" d="M6.653,44.671h3.715a2.44,2.44,0,0,0,1.117.8l1.9.66H7.17a6.4,6.4,0,0,0-1.583.2v-.584a1.07,1.07,0,0,1,1.066-1.071Zm4.509,14.362h-4.9a2.511,2.511,0,0,0,4.9,0Zm-2.449,3.1a3.668,3.668,0,0,1-3.611-3.1H3.119a5.621,5.621,0,0,0,11.189,0H12.324A3.667,3.667,0,0,1,8.713,62.133Zm0-10.529a6.845,6.845,0,0,0-6.8,6.282h13.6a6.845,6.845,0,0,0-6.8-6.282ZM19.583,56.1l.011-.97a.57.57,0,0,1,.011-.106l0-.317h-.863a.572.572,0,0,1-.571-.573V47.788l-1.482-.514H7.17a5.3,5.3,0,0,0-5.281,5.307v1.756a7.955,7.955,0,0,1,14.769,3.55h3.983a2.075,2.075,0,0,1-.466-.349,1.991,1.991,0,0,1-.593-1.442Zm1.168-1.536h1.658l.219-8.035a1.45,1.45,0,0,0-.894-1.388l-5.673-2.564-4.31-1.947-.691,1.541A1.816,1.816,0,0,0,11.05,43.6a1.377,1.377,0,0,0,.807.78l8.579,2.977a.571.571,0,0,1,.384.548Zm3.312,1.147h-1.1a.5.5,0,0,1-.093-.009v.009H20.729l0,.4a.853.853,0,0,0,.256.615.918.918,0,0,0,.663.27l1.113-.018,1.362-.009a.486.486,0,0,0,.345-.147.492.492,0,0,0,.142-.348V56.33A.641.641,0,0,0,24.063,55.707Zm8.577,5.28a2.521,2.521,0,0,0,2.448-1.953h-4.9A2.521,2.521,0,0,0,32.64,60.986Zm0,1.147a3.667,3.667,0,0,1-3.611-3.1H27.046a5.621,5.621,0,0,0,11.189,0H36.251A3.668,3.668,0,0,1,32.64,62.133Zm0-10.529a6.846,6.846,0,0,0-6.8,6.282h13.6a6.846,6.846,0,0,0-6.8-6.282Zm.854-1.1-.909-4.222-3.5-.534V51.3a7.928,7.928,0,0,1,4.41-.8Zm2.338-7.7a3.028,3.028,0,0,0-.916-2.191,1.453,1.453,0,0,0-.46-.276v4.935a1.5,1.5,0,0,0,.47-.282A2.974,2.974,0,0,0,35.831,42.8Zm-6.01.934a.71.71,0,1,0,.71-.713A.713.713,0,0,0,29.821,43.734Zm.71-1.86a1.861,1.861,0,0,1,1.344,3.139l1.439.22V40.369l-3.915.6a.365.365,0,0,0-.316.369v.261c.312.117.627.233.947.348A1.83,1.83,0,0,1,30.532,41.874ZM25.526,33.92l-.192,1.988a2.994,2.994,0,0,0,2.577-2.13l-1.979-.193A.371.371,0,0,0,25.526,33.92Zm-1.88,2.7a.372.372,0,0,0,.5-.313l.241-2.5a1.516,1.516,0,0,1,1.652-1.366l2.486.243a.347.347,0,0,0,.308-.117.35.35,0,0,0,.094-.317,3.952,3.952,0,0,0-3.5-3.266c-.129-.012-.257-.019-.384-.019a3.959,3.959,0,0,0-1.4,7.652ZM19.933,39.63a.568.568,0,0,1,.606.066l3,2.4,5.143,1.52a1.84,1.84,0,0,1,.266-.853c-1.239-.46-2.423-.932-3.753-1.464l-.5-.2a.571.571,0,0,1-.24-.181L22.72,38.679a.571.571,0,0,1-.12-.368,5.286,5.286,0,0,0-.094-.972,5.115,5.115,0,0,1-2.224-2.659c-4.182.288-6.774,1.853-8.089,4.888l4.092,1.849ZM5.619,34.17H3.663v3.336H5.619Zm3.663,8.923V34.571a.4.4,0,0,0-.4-.4H6.76v3.349a1.092,1.092,0,0,1-1.042,1.134H3.563a1.092,1.092,0,0,1-1.042-1.134V34.17H.4a.4.4,0,0,0-.4.4v8.521a.4.4,0,0,0,.4.4H8.882A.4.4,0,0,0,9.281,43.092Z" transform="translate(0 -28.967)" fill="#f89321"/>
      </g>
    </g>
  </g>
</svg>
