<svg xmlns="http://www.w3.org/2000/svg" width="24" height="24" viewBox="0 0 24 24">
  <path id="Union_29" data-name="Union 29" d="M14.109,24,22.5,19.652l1.446,3.367h0a.7.7,0,0,1-.649.982ZM.706,24a.7.7,0,0,1-.649-.982l.385-.9,6.206-3.17,4.833,4.823a2.86,2.86,0,0,0-.413.226ZM7.97,18.277l1.276-.652c.62.8,1.07,1.323,1.157,1.422a2.122,2.122,0,0,0,3.2,0,37.752,37.752,0,0,0,4.384-6.317h1.076a.707.707,0,0,1,.649.427l2.232,5.2L12.8,23.093Zm-3.677-5.12a.707.707,0,0,1,.649-.427H6.018A33.37,33.37,0,0,0,8.389,16.48L1.313,20.094Zm7.175,4.919c-.238-.273-5.82-6.73-5.82-11.169,0-9.265,12.705-9.153,12.705,0,0,4.439-5.582,10.9-5.82,11.169a.707.707,0,0,1-1.065,0ZM9.882,6.343A2.118,2.118,0,1,0,12,4.23,2.118,2.118,0,0,0,9.882,6.343Zm1.412,0a.706.706,0,1,1,.706.7A.706.706,0,0,1,11.294,6.343Z" transform="translate(0)" fill="#fff"/>
</svg>
