<svg id="Component_111_4" data-name="Component 111 – 4" xmlns="http://www.w3.org/2000/svg" width="48" height="74.185" viewBox="0 0 48 74.185">
  <g id="Group_34" data-name="Group 34" transform="translate(17.437 60.186)">
    <circle id="Ellipse_5" data-name="Ellipse 5" cx="7" cy="7" r="7" transform="translate(0 -0.001)" fill="#013861"/>
  </g>
  <g id="_09-Shop" data-name="09-Shop" transform="translate(-8 -2)">
    <circle id="Ellipse_530" data-name="Ellipse 530" cx="19.108" cy="19.108" r="19.108" transform="translate(13.379 7.813)" fill="#fff"/>
    <path id="Path_84221" data-name="Path 84221" d="M32,2A24.028,24.028,0,0,0,8,26C8,44.294,30.45,61.1,31.406,61.8a1,1,0,0,0,1.188,0C33.55,61.1,56,44.294,56,26A24.028,24.028,0,0,0,32,2Zm0,42A18,18,0,1,1,50,26,18,18,0,0,1,32,44ZM42.62,19H21.39l1.72-3.45A.977.977,0,0,1,24,15H40a.977.977,0,0,1,.89.55ZM21,21H43v.88a3.087,3.087,0,0,1-2.3,3.04,2.98,2.98,0,0,1-2.7-.7,2.954,2.954,0,0,1-4,0,2.954,2.954,0,0,1-4,0,2.954,2.954,0,0,1-4,0,2.98,2.98,0,0,1-2.7.7A3.087,3.087,0,0,1,21,21.88Zm19,6a4.849,4.849,0,0,0,1-.1V36a1,1,0,0,1-1,1H35V30a1,1,0,0,0-1-1H30a1,1,0,0,0-1,1v7H24a1,1,0,0,1-1-1V26.9a4.85,4.85,0,0,0,1,.1,5.086,5.086,0,0,0,2-.42,4.972,4.972,0,0,0,4,0,4.972,4.972,0,0,0,4,0,4.972,4.972,0,0,0,4,0A5.086,5.086,0,0,0,40,27Z" fill="#013861"/>
  </g>
</svg>
