<svg xmlns="http://www.w3.org/2000/svg" width="43.741" height="48" viewBox="0 0 43.741 48">
  <path id="assignment_add_FILL1_wght400_GRAD0_opsz48" d="M25.659,8.717A1.834,1.834,0,0,0,27,8.143a1.848,1.848,0,0,0,0-2.676,1.848,1.848,0,0,0-2.676,0,1.848,1.848,0,0,0,0,2.676A1.834,1.834,0,0,0,25.659,8.717ZM39.474,50A10.3,10.3,0,0,1,29.208,39.788a9.984,9.984,0,0,1,3-7.29,10.185,10.185,0,0,1,14.5,0,9.939,9.939,0,0,1,3.031,7.29A10.35,10.35,0,0,1,39.474,50Zm-.819-3.276h1.8V40.717h6.007v-1.8H40.457V32.908h-1.8v6.007H32.648v1.8h6.007ZM14.737,18.382H36.58V15.106H14.737Zm12.56,27.3H9.276A3.263,3.263,0,0,1,6,42.41V9.645A3.263,3.263,0,0,1,9.276,6.369H20.471a4.845,4.845,0,0,1,1.747-3.14,5.431,5.431,0,0,1,6.881,0,4.845,4.845,0,0,1,1.747,3.14H42.041a3.263,3.263,0,0,1,3.276,3.276V27.611a11.574,11.574,0,0,0-2.84-1.038,13.8,13.8,0,0,0-3-.328,12.6,12.6,0,0,0-2.894.328V24.389H14.737v3.276H33.522A13.466,13.466,0,0,0,30,30.2a13.821,13.821,0,0,0-2.539,3.468H14.737v3.276H26.259a12.6,12.6,0,0,0-.328,2.894,13.325,13.325,0,0,0,.328,3,12.767,12.767,0,0,0,1.038,2.84Z" transform="translate(-6 -2)" fill="#013861"/>
</svg>
