<svg xmlns="http://www.w3.org/2000/svg" width="18" height="18" viewBox="0 0 18 18">
  <g id="Arrow_-arrows_-audio_-media_-multimedia_-replay_-sound-21" data-name="Arrow,-arrows,-audio,-media,-multimedia,-replay,-sound-21" transform="translate(-3 -3)">
    <g id="calendar_8_" data-name="calendar (8)" transform="translate(3 3)">
      <g id="Group_160589" data-name="Group 160589">
        <g id="Group_160588" data-name="Group 160588">
          <path id="Path_84201" data-name="Path 84201" d="M16.224,1.806h-.9V.9a.9.9,0,1,0-1.8,0v.9H4.507V.9a.852.852,0,0,0-.9-.9.852.852,0,0,0-.9.9v.9H.9a.9.9,0,0,0-.9.9V15.348a.9.9,0,0,0,.9.9H6.4A7.178,7.178,0,0,1,17.125,7.042V2.708A.97.97,0,0,0,16.224,1.806Z" fill="#fff"/>
        </g>
      </g>
      <g id="Group_160591" data-name="Group 160591" transform="translate(7.502 7.502)">
        <g id="Group_160590" data-name="Group 160590">
          <path id="Path_84202" data-name="Path 84202" d="M210.049,204.8a5.249,5.249,0,1,0,5.249,5.249A5.264,5.264,0,0,0,210.049,204.8Zm1.75,6.124h-1.75a.826.826,0,0,1-.875-.875v-2.624a.875.875,0,0,1,1.75,0v1.75h.875a.875.875,0,0,1,0,1.75Z" transform="translate(-204.8 -204.8)" fill="#fff"/>
        </g>
      </g>
    </g>
  </g>
</svg>
