<svg xmlns="http://www.w3.org/2000/svg" width="14" height="14.008" viewBox="0 0 14 14.008">
  <path id="Union_2" data-name="Union 2" d="M17244.432,17287.918a7,7,0,1,1,6.994,7A7.008,7.008,0,0,1,17244.432,17287.918Zm.576,0a6.419,6.419,0,1,0,6.418-6.418A6.428,6.428,0,0,0,17245.008,17287.918Zm8.922,3.953-2.922-2.93a.309.309,0,0,1-.1-.223v-5.527a.327.327,0,0,1,.328-.32.322.322,0,0,1,.32.32v5.391l2.828,2.828a.316.316,0,0,1,0,.461.312.312,0,0,1-.23.09A.329.329,0,0,1,17253.93,17291.871Z" transform="translate(-17244.432 -17280.914)" fill="#707171"/>
</svg>
